<svg viewBox="0 0 512 512" xmlns="http://www.w3.org/2000/svg"><title/><g id="Route"><path d="M454.4892,62.1436a64.8553,64.8553,0,0,0-99.9727,81.6093L401.954,215.55a7.9973,7.9973,0,0,0,13.3516,0l47.4375-71.7891A65.075,65.075,0,0,0,454.4892,62.1436ZM449.3915,134.94,408.63,196.6279l-40.7617-61.6953a48.8556,48.8556,0,1,1,81.5234.0078Z"/><path d="M408.63,75.9717a32,32,0,1,0,32,32A32.0341,32.0341,0,0,0,408.63,75.9717Zm0,48a16,16,0,1,1,16-16A16.0184,16.0184,0,0,1,408.63,123.9717Z"/><path d="M383.9579,285.9717H139.1884a48.9883,48.9883,0,1,1,0-97.9766H304.7353l-8.2735,8.2735a7.9991,7.9991,0,1,0,11.3125,11.3125l21.9229-21.9219a8.0286,8.0286,0,0,0,0-11.3281l-21.9229-21.9219a7.9991,7.9991,0,0,0-11.3125,11.3125l8.2735,8.2734H139.1884a64.9883,64.9883,0,1,0,0,129.9766h244.77a48.9844,48.9844,0,1,1,0,97.9687H286.6688a8,8,0,0,0,0,16h97.2891a64.9844,64.9844,0,1,0,0-129.9687Z"/><path d="M258.2079,452.8232H251.619a99.6776,99.6776,0,0,0-91.2275-91.2343V348.8232h6.18a8,8,0,1,0,0-16H138.2079a8,8,0,0,0,0,16h6.1836v12.7657A99.6781,99.6781,0,0,0,53.16,452.8232H46.5712a8,8,0,1,0,0,16H258.2079a8,8,0,0,0,0-16Zm-189.0742,0a83.6392,83.6392,0,0,1,166.5117,0Z"/></g></svg>